<svg version="1.1" viewBox="0 0 48 48" xmlns="http://www.w3.org/2000/svg">
	<g transform="matrix(.3505 0 0 .3505 .2585 .2585)" fill-rule="evenodd" shape-rendering="auto">
		<circle cx="67.73" cy="67.73" r="65.38" color="#000000" color-rendering="auto" fill="#fff" image-rendering="auto" solid-color="#000000" stroke-width="8.517" style="isolation:auto;mix-blend-mode:normal"/>
		<g stroke-width="8.517">
			<circle cx="67.73" cy="67.73" r="33.74" color="#000000" color-rendering="auto" image-rendering="auto" solid-color="#000000" style="isolation:auto;mix-blend-mode:normal"/>
			<path d="m106.1 55.64h3.553v26.65h-3.553z" color="#000000" color-rendering="auto" image-rendering="auto" solid-color="#000000" style="isolation:auto;mix-blend-mode:normal"/>
			<path d="m117.5 55.64h3.553v26.65h-23.83l0.0404-3.368h20.11l0.1135-20.12h-7.799l0.0178-3.161z" color="#000000" color-rendering="auto" image-rendering="auto" solid-color="#000000" style="isolation:auto;mix-blend-mode:normal"/>
			<path d="m28.17 55.64v26.65h-16.91z" color="#000000" color-rendering="auto" image-rendering="auto" solid-color="#000000" style="isolation:auto;mix-blend-mode:normal"/>
		</g>
		<g fill="#fff" stroke-width="25.43">
			<path d="m99.64 78.9-1.472 3.388-34.02 3e-6v-3.388z" color="#000000" color-rendering="auto" image-rendering="auto" solid-color="#000000" style="isolation:auto;mix-blend-mode:normal"/>
			<path d="m54.65 55.64h9.506v26.65h-9.44l-0.05725-3.379 5.84 0.06504-0.1874-19.89-5.621 0.07682z" color="#000000" color-rendering="auto" image-rendering="auto" solid-color="#000000" style="isolation:auto;mix-blend-mode:normal"/>
			<path d="m42.08 55.64h3.553v18.09h-3.553z" color="#000000" color-rendering="auto" image-rendering="auto" solid-color="#000000" style="isolation:auto;mix-blend-mode:normal"/>
			<path d="m42.08 74.69h3.553v3.331h-3.553z" color="#000000" color-rendering="auto" image-rendering="auto" solid-color="#000000" style="isolation:auto;mix-blend-mode:normal"/>
			<path d="m42.08 78.92h3.553v3.331h-3.553z" color="#000000" color-rendering="auto" image-rendering="auto" solid-color="#000000" style="isolation:auto;mix-blend-mode:normal"/>
		</g>
	</g>
</svg>
