<svg enable-background="new 0 0 57 57" version="1.1" viewBox="0 0 48 48" xmlns="http://www.w3.org/2000/svg">
	<g transform="matrix(0 -.6625 .6625 0 5.45 42.55)">
		<g stroke-width="1.232">
			<path d="m22.66 0h-19.32c-1.842 0-3.34 1.498-3.34 3.34v19.32c0 1.842 1.498 3.34 3.34 3.34h19.32c1.842 0 3.34-1.498 3.34-3.34v-19.32c0-1.842-1.498-3.34-3.34-3.34z"/>
			<path d="m33.34 26h19.32c1.842 0 3.34-1.498 3.34-3.34v-19.32c0-1.842-1.498-3.34-3.34-3.34h-19.32c-1.842 0-3.34 1.498-3.34 3.34v19.32c0 1.842 1.498 3.34 3.34 3.34z"/>
			<path d="m22.66 30h-19.32c-1.842 0-3.34 1.498-3.34 3.34v19.32c0 1.842 1.498 3.34 3.34 3.34h19.32c1.842 0 3.34-1.498 3.34-3.34v-19.32c0-1.842-1.498-3.34-3.34-3.34z"/>
		</g>
		<path d="m41.14 55.98v-11.15h-11.15v-3.717h11.15v-11.15h3.717v11.15h11.15v3.717h-11.15v11.15z" stroke-width="1.145"/>
	</g>
</svg>
