<svg version="1.1" viewBox="0 0 48 48" xmlns="http://www.w3.org/2000/svg">
	<path d="m15.94 45.31c-2.96-1.287-4.718-4.243-6.401-6.846-3.117-5.377-4.898-12.11-2.778-18.16 1.539-4.522 6.186-7.996 11.05-7.452 2.329 0.2871 4.454 1.629 6.791 1.72 3.195-0.7622 6.372-2.546 9.749-1.685 2.611 0.4433 5.085 1.905 6.628 4.069-2.812 1.788-4.995 4.897-4.729 8.345-0.1017 3.821 2.553 7.246 5.93 8.79-1.346 3.819-3.528 7.429-6.568 10.13-1.767 1.565-4.301 1.508-6.376 0.6604-2.223-0.9386-4.73-1.397-7.061-0.5654-2.007 0.5529-4.117 1.688-6.232 1.001zm8.133-33.64c0.0794-4.767 4.315-8.87 8.985-9.255 0.2635 3.019-1.136 5.972-3.382 7.952-1.506 1.394-3.517 2.377-5.606 2.262 6.34e-4 -0.3194 0.0014-0.6389 2e-3 -0.9582z"/>
</svg>
