<svg xmlns="http://www.w3.org/2000/svg" width="48" height="48" viewBox="0 0 48 48">
<path fill="none" d="M0 0h48v48H0z" />
<path fill="none" d="M 15.537578,32.000415 C 14.991695,29.238893 12.555294,27.15571 9.6332179,27.15571 c -2.32,0 -4.3309342,1.316539 -5.3384082,3.239169 C 1.8824913,30.655779 0,32.698824 0,35.183391 0,37.844568 2.1554325,40 4.816609,40 h 10.435986 c 2.21564,0 4.013841,-1.7982 4.013841,-4.013841 0,-2.119308 -1.649689,-3.837231 -3.728858,-3.985744 z m -0.284983,6.394049 H 4.816609 c -1.7741177,0 -3.2110727,-1.436955 -3.2110727,-3.211073 0,-1.774117 1.436955,-3.211072 3.2110727,-3.211072 h 0.5699654 c 0.5258131,-1.850381 2.2236678,-3.211073 4.2466435,-3.211073 2.4404151,0 4.4152251,1.97481 4.4152251,4.415225 v 0.401384 h 1.204152 c 1.328581,0 2.408305,1.079723 2.408305,2.408304 0,1.328582 -1.079724,2.408305 -2.408305,2.408305 z" />
<path fill="none" d="M 43.322855,14.076765 C 42.638149,10.612958 39.582145,8 35.916955,8 c -2.91,0 -5.432336,1.6513495 -6.696021,4.062924 -3.025796,0.327249 -5.387024,2.889861 -5.387024,6.00628 0,3.337942 2.703581,6.041523 6.041523,6.041523 h 13.089965 c 2.779101,0 5.034603,-2.255502 5.034603,-5.034602 0,-2.65827 -2.069222,-4.81308 -4.677146,-4.99936 z m -0.357457,8.020121 H 29.875433 c -2.225295,0 -4.027682,-1.802388 -4.027682,-4.027682 0,-2.225294 1.802387,-4.027681 4.027682,-4.027681 h 0.714913 c 0.659533,-2.320952 2.78917,-4.027682 5.326609,-4.027682 3.061038,0 5.538062,2.477024 5.538062,5.538062 v 0.503461 h 1.510381 c 1.666454,0 3.020761,1.354307 3.020761,3.020761 0,1.666453 -1.354307,3.020761 -3.020761,3.020761 z" />
</svg>