<svg version="1.1" viewBox="0 0 48 48" xmlns="http://www.w3.org/2000/svg">
	<path d="M0 0h48v48H0z" fill="none" opacity=".1"/>
	<path d="m24 2c-4.614 0-8.82 1.739-12.01 4.594l2.834 2.834c2.457-2.134 5.663-3.428 9.172-3.428 7.73 0 14 6.27 14 14v4h-8v0.5996l11.58 11.58c0.2657-0.6775 0.416-1.413 0.416-2.184v-14c0-9.94-8.06-18-18-18zm-18.79 1.811-2.434 2.434 5.32 5.32c-1.338 2.516-2.098 5.387-2.098 8.436v14c0 3.31 2.69 6 6 6h6v-16h-8v-4c0-1.928 0.3956-3.762 1.102-5.434l18.9 18.9v6.535h6c0.1723 0 0.3432-0.009077 0.5117-0.02344l4.734 4.734 2.432-2.434-38.47-38.47z"/>
</svg>
