<svg version="1.1" viewBox="0 0 48 48" xmlns="http://www.w3.org/2000/svg">
	<g>
		<path d="m18.01 45.29c-1.292 0.1318-3.404-1.112-1.639-2.09-2.724-0.7071-5.388-2.281-6.508-4.988-1.26-2.422-1.957-5.075-2.617-7.704-1.177-1.072-3.711-0.7275-4.297-2.719 2.956-1.421 3.762-4.967 4.146-7.941 0.6988-4.989 2.013-10.38 6.149-13.67 4.358-3.623 10.55-4.239 15.9-2.892 5.056 1.26 9.063 5.435 10.46 10.41 1.423 3.797 0.9547 8.113 2.918 11.72 0.4231 1.548 3.948 2.243 1.498 3.646-1.549 0.9062-3.909 0.7-3.707 3.172-0.901 3.118-1.831 6.498-4.25 8.806-1.282 1.111-2.913 1.717-4.531 2.154 2.226 1.392-1.124 2.339-2.448 2.147-1.525-0.01069-4.153 0.1673-4.57-1.456-1.486-0.4749-1.152 1.308-2.708 1.286-1.247 0.205-2.535 0.1813-3.795 0.1181zm15.66-10.91c2.043-3.356 1.945-7.502 1.841-11.3-0.4014-3.751-0.9986-7.673-2.994-10.94-1.279-2.035-4.501-2.756-6.165-0.7778-1.277 2.052-3.555 1.782-4.815-0.08665-1.729-1.94-4.901-1.072-6.129 0.9789-1.967 3.36-2.59 7.34-2.934 11.17-0.07215 3.769-0.1337 7.907 2.011 11.18 2.465 3.197 6.829 4.386 10.72 4.097 3.164-0.4336 6.44-1.759 8.467-4.32z"/>
		<g stroke-dashoffset="200" stroke-opacity=".2617" stroke-width="5">
			<circle cx="23.96" cy="21" r="3.062" color="#000000" stop-color="#000000" style="paint-order:stroke fill markers"/>
			<circle cx="18.06" cy="16.75" r="1.136" color="#000000" stop-color="#000000" style="paint-order:stroke fill markers"/>
			<circle cx="30.29" cy="16.75" r="1.136" color="#000000" stop-color="#000000" style="paint-order:stroke fill markers"/>
		</g>
	</g>
</svg>
