<svg version="1.1" viewBox="0 0 48 48" xmlns="http://www.w3.org/2000/svg">
	<path d="m24 1.082a22.92 22.92 0 0 0-22.92 22.92 22.92 22.92 0 0 0 22.92 22.92 22.92 22.92 0 0 0 22.92-22.92 22.92 22.92 0 0 0-22.92-22.92zm0 11.09h0.001953a11.83 11.83 0 0 1 11.82 11.83 11.83 11.83 0 0 1-0.668 3.916h-12.41v-8.154h-3.332l0.01367 1.234 1.971-0.02539 0.06445 6.973-2.047-0.02344 0.01953 1.186h3.311v-0.001954h11.92l0.5137-1.182h2.268v-8.16h3.996 1.246v9.342h-3.996-1.244-2.783a11.83 11.83 0 0 1-10.67 6.723 11.83 11.83 0 0 1-11.83-11.83 11.83 11.83 0 0 1 11.82-11.83zm-13.87 7.588v9.342h-5.928l5.928-9.342zm4.875 0v6.342h1.244v-6.342h-1.244zm23.68 1.109v7.053h2.707l0.03906-7.053h-2.746zm-23.68 5.568v1.168h1.244v-1.168h-1.244zm0 1.482v1.168h1.244v-1.168h-1.244z" />
</svg>
