<svg version="1.1" viewBox="0 0 48 48" xmlns="http://www.w3.org/2000/svg">
	<path d="m31.8 9.545c-0.35 0-0.64 0.19-0.82 0.46l-0.13 0.29-10.37 23.31c-0.32 0.57-0.51 1.22-0.51 1.93 0 2.21 1.8 4.01 4.01 4.01 1.93 0 3.53-1.36 3.92-3.17l0.01-0.07 4.89-25.76c0-0.55-0.45-1-1-1zm-29.8 8 4 4c5.75-5.75 13.57-8.15 21.07-7.25l2.38-5.36c-9.66-1.71-19.98 1.15-27.45 8.61zm40 4 4-4c-3.27-3.27-7.1-5.63-11.17-7.14l-1.07 5.63c2.99 1.24 5.8 3.07 8.24 5.51zm-8 8 4-4c-1.6-1.6-3.41-2.84-5.33-3.78l-1.11 5.84c0.87 0.55 1.69 1.19 2.44 1.94zm-24-4 4 4c2.27-2.27 5.11-3.59 8.06-3.99l2.57-5.77c-5.28-0.16-10.6 1.74-14.63 5.76z"/>
</svg>
