<svg version="1.1" viewBox="0 0 48 48" xmlns="http://www.w3.org/2000/svg">
	<path d="m11.51 39.81c-0.5869-0.1595-0.9687-0.4555-1.198-0.9289-0.168-0.3471-0.1944-0.5746-0.1944-1.677v-1.275h27.79l-0.03001 1.382c-0.02864 1.319-0.04145 1.399-0.2802 1.76-0.1569 0.2368-0.4174 0.4599-0.699 0.5986l-0.4489 0.221-12.26 0.01787c-9.503 0.01386-12.35-0.0081-12.68-0.09763zm-1.438-8.005c-0.05095-0.1495-3.951-21.64-3.931-21.66 0.00829-0.0084 2.462 2.21 5.454 4.93 4.13 3.755 5.459 4.914 5.522 4.815 0.04588-0.07146 1.604-2.74 3.462-5.929 1.858-3.19 3.4-5.799 3.425-5.799s1.567 2.61 3.425 5.799c1.858 3.19 3.416 5.858 3.462 5.929 0.06335 0.09866 1.392-1.06 5.522-4.815 2.991-2.72 5.445-4.938 5.454-4.93 0.0083 0.0084-0.8734 4.901-1.959 10.87l-1.974 10.86-13.91 0.0236c-11.08 0.0188-13.92-1.87e-4 -13.95-0.0932z"/>
</svg>
