<svg xmlns="http://www.w3.org/2000/svg" width="48" height="48" viewBox="0 0 48 48">
<path d="M0 0h48v48H0z" fill="none" />
<path d="M 39.61426,12.466574 C 38.616611,7.419653 34.16388,3.612457 28.823534,3.612457 c -4.240001,0 -7.915157,2.406088 -9.756406,5.919861 -4.40872,0.476818 -7.849135,4.210657 -7.849135,8.751418 0,4.863531 3.939239,8.802768 8.802768,8.802768 h 19.072668 c 4.049273,0 7.33564,-3.286365 7.33564,-7.335641 0,-3.873217 -3.014948,-7.012869 -6.814809,-7.284289 z M 39.093429,24.152248 H 20.020761 c -3.242353,0 -5.868512,-2.626158 -5.868512,-5.868512 0,-3.242352 2.626159,-5.868511 5.868512,-5.868511 h 1.041664 c 0.96097,-3.381731 4.063946,-5.868512 7.761109,-5.868512 4.460069,0 8.069204,3.609135 8.069204,8.069204 v 0.733564 h 2.200691 c 2.428097,0 4.401385,1.973286 4.401385,4.401382 0,2.428099 -1.973288,4.401385 -4.401385,4.401385 z" />
<path d="m 25.25,30.599609 -8.601562,14.896485 h 3.325825 l 8.601562,-14.896485 z"/>
<path d="M 17.25,30.599609 8.648438,45.496094 h 3.325825 l 8.601562,-14.896485 z"/>
<path d="m 33.25,30.599609 -8.601562,14.896485 h 3.325825 l 8.601562,-14.896485 z"/>
</svg>
