<svg xmlns="http://www.w3.org/2000/svg" width="48" height="48" xmlns:v="https://vecta.io/nano"><path d="M15.03 42.97C8.5 39.87 3.8 33.52 3.1 26h-3C1.12 38.32 11.42 48 24 48c.45 0 .88-.04 1.32-.07L17.7 40.3l-2.67 2.67zm1.78-13.05c-.38 0-.73-.05-1.05-.17a2.35 2.35 0 0 1-.8-.47c-.22-.2-.4-.45-.5-.73-.12-.3-.18-.6-.18-.94h-2.6c0 .72.14 1.35.42 1.9s.65 1 1.12 1.37c.47.37 1 .64 1.63.83.62.2 1.26.3 1.94.3.74 0 1.43-.1 2.07-.3s1.2-.5 1.66-.9a4.13 4.13 0 0 0 1.1-1.44c.26-.57.4-1.22.4-1.95a4.58 4.58 0 0 0-.14-1.12 3.87 3.87 0 0 0-.45-1.02c-.2-.32-.48-.6-.8-.86-.33-.25-.74-.46-1.2-.63a4.26 4.26 0 0 0 1.05-.66c.3-.26.55-.54.75-.83.2-.3.35-.6.45-.92a3.19 3.19 0 0 0 .15-.95c0-.73-.12-1.37-.36-1.92s-.58-1-1.02-1.38-.96-.65-1.58-.84a6.84 6.84 0 0 0-2.06-.29c-.72 0-1.4.1-2 .32s-1.13.5-1.57.9-.78.83-1.03 1.35-.37 1.1-.37 1.7h2.6c0-.34.06-.64.18-.9a1.91 1.91 0 0 1 .5-.68 2.2 2.2 0 0 1 .76-.44 2.91 2.91 0 0 1 .95-.16c.8 0 1.4.2 1.78.62s.58 1 .58 1.73c0 .36-.05.68-.16.97s-.27.54-.5.75-.5.37-.82.5c-.33.12-.72.18-1.16.18H15v2.05h1.54c.44 0 .84.05 1.2.15s.65.25.9.47c.25.2.44.48.58.8.13.32.2.7.2 1.14 0 .8-.23 1.43-.7 1.86-.45.42-1.08.63-1.9.63zm17.12-11.85c-.63-.66-1.4-1.17-2.27-1.53-.9-.36-1.86-.54-2.93-.54H24v16h4.6c1.1 0 2.1-.18 3.02-.54s1.68-.87 2.32-1.53 1.14-1.46 1.48-2.4c.35-.93.52-1.98.52-3.14v-.8c0-1.16-.18-2.2-.53-3.14s-.84-1.74-1.47-2.4zm-.8 6.34c0 .83-.1 1.6-.3 2.25-.2.67-.47 1.23-.85 1.7s-.85.8-1.42 1.06c-.57.24-1.23.37-2 .37h-1.8V18.24h1.95c1.44 0 2.53.46 3.3 1.37.75.92 1.13 2.24 1.13 3.98v.82zM24 0c-.45 0-.88.04-1.32.07L30.3 7.7l2.66-2.66C39.5 8.13 44.2 14.48 44.9 22h3C46.88 9.68 36.58 0 24 0z"/></svg>