<?xml version="1.0" encoding="UTF-8" standalone="no"?>
<!-- Generator: Adobe Illustrator 19.0.0, SVG Export Plug-In . SVG Version: 6.00 Build 0)  -->

<svg
   xmlns:dc="http://purl.org/dc/elements/1.1/"
   xmlns:cc="http://creativecommons.org/ns#"
   xmlns:rdf="http://www.w3.org/1999/02/22-rdf-syntax-ns#"
   xmlns:svg="http://www.w3.org/2000/svg"
   xmlns="http://www.w3.org/2000/svg"
   xmlns:sodipodi="http://sodipodi.sourceforge.net/DTD/sodipodi-0.dtd"
   xmlns:inkscape="http://www.inkscape.org/namespaces/inkscape"
   version="1.1"
   id="Capa_1"
   x="0px"
   y="0px"
   viewBox="0 0 57 57"
   style="enable-background:new 0 0 57 57;"
   xml:space="preserve"
   sodipodi:docname="app.svg"
   inkscape:version="0.92.3 (2405546, 2018-03-11)"><metadata
   id="metadata47"><rdf:RDF><cc:Work
       rdf:about=""><dc:format>image/svg+xml</dc:format><dc:type
         rdf:resource="http://purl.org/dc/dcmitype/StillImage" /></cc:Work></rdf:RDF></metadata><defs
   id="defs45" /><sodipodi:namedview
   pagecolor="#ffffff"
   bordercolor="#666666"
   borderopacity="1"
   objecttolerance="10"
   gridtolerance="10"
   guidetolerance="10"
   inkscape:pageopacity="0"
   inkscape:pageshadow="2"
   inkscape:window-width="1920"
   inkscape:window-height="974"
   id="namedview43"
   showgrid="false"
   inkscape:zoom="1"
   inkscape:cx="26.688344"
   inkscape:cy="38.248938"
   inkscape:window-x="0"
   inkscape:window-y="0"
   inkscape:window-maximized="0"
   inkscape:current-layer="g10" />
<g
   id="g10"
   transform="matrix(0,-0.81632653,0.81632653,0,5.2346939,51.765306)">
	<path
   d="M 22.66,0 H 3.34 C 1.498,0 0,1.498 0,3.34 V 22.66 C 0,24.502 1.498,26 3.34,26 H 22.66 C 24.502,26 26,24.502 26,22.66 V 3.34 C 26,1.498 24.502,0 22.66,0 Z"
   id="path2"
   inkscape:connector-curvature="0" />
	<path
   d="M 33.34,26 H 52.66 C 54.502,26 56,24.502 56,22.66 V 3.34 C 56,1.498 54.502,0 52.66,0 H 33.34 C 31.498,0 30,1.498 30,3.34 v 19.32 c 0,1.842 1.498,3.34 3.34,3.34 z"
   id="path4"
   inkscape:connector-curvature="0" />
	<path
   d="M 22.66,30 H 3.34 C 1.498,30 0,31.498 0,33.34 V 52.66 C 0,54.502 1.498,56 3.34,56 H 22.66 C 24.502,56 26,54.502 26,52.66 V 33.34 C 26,31.498 24.502,30 22.66,30 Z"
   id="path6"
   inkscape:connector-curvature="0" />
	
<path
   inkscape:connector-curvature="0"
   d="M 41.141442,55.976698 V 44.825351 H 29.990095 V 41.108235 H 41.141442 V 29.956888 h 3.717115 v 11.151347 h 11.151348 v 3.717116 H 44.858557 v 11.151347 z"
   id="path4927-3"
   style="fill:#000000;stroke-width:0.92927885" /></g>
<g
   id="g12"
   transform="matrix(0,-0.81632653,0.81632653,0,5.2346939,51.765306)">
</g>
<g
   id="g14"
   transform="matrix(0,-0.81632653,0.81632653,0,5.2346939,51.765306)">
</g>
<g
   id="g16"
   transform="matrix(0,-0.81632653,0.81632653,0,5.2346939,51.765306)">
</g>
<g
   id="g18"
   transform="matrix(0,-0.81632653,0.81632653,0,5.2346939,51.765306)">
</g>
<g
   id="g20"
   transform="matrix(0,-0.81632653,0.81632653,0,5.2346939,51.765306)">
</g>
<g
   id="g22"
   transform="matrix(0,-0.81632653,0.81632653,0,5.2346939,51.765306)">
</g>
<g
   id="g24"
   transform="matrix(0,-0.81632653,0.81632653,0,5.2346939,51.765306)">
</g>
<g
   id="g26"
   transform="matrix(0,-0.81632653,0.81632653,0,5.2346939,51.765306)">
</g>
<g
   id="g28"
   transform="matrix(0,-0.81632653,0.81632653,0,5.2346939,51.765306)">
</g>
<g
   id="g30"
   transform="matrix(0,-0.81632653,0.81632653,0,5.2346939,51.765306)">
</g>
<g
   id="g32"
   transform="matrix(0,-0.81632653,0.81632653,0,5.2346939,51.765306)">
</g>
<g
   id="g34"
   transform="matrix(0,-0.81632653,0.81632653,0,5.2346939,51.765306)">
</g>
<g
   id="g36"
   transform="matrix(0,-0.81632653,0.81632653,0,5.2346939,51.765306)">
</g>
<g
   id="g38"
   transform="matrix(0,-0.81632653,0.81632653,0,5.2346939,51.765306)">
</g>
<g
   id="g40"
   transform="matrix(0,-0.81632653,0.81632653,0,5.2346939,51.765306)">
</g>
</svg>