<svg xmlns="http://www.w3.org/2000/svg" width="48" height="48" viewBox="0 0 48 48">
<path d="m 35.830508,3.3519656 c -5.021515,0 -9.088714,4.067199 -9.088714,9.0887144 0,5.021513 4.067199,9.088711 9.088714,9.088711 5.021513,0 9.088713,-4.067198 9.088713,-9.088711 0,-5.0215154 -4.0672,-9.0887144 -9.088713,-9.0887144 z M 33.633485,30.119368 c -1.074546,-5.435926 -5.870483,-9.536572 -11.622449,-9.536572 -4.566811,0 -8.525239,2.591544 -10.508407,6.376151 -4.7485333,0.513569 -8.4541272,4.535203 -8.4541272,9.425955 0,5.2384 4.242866,9.481264 9.4812632,9.481264 h 20.542744 c 4.361381,0 7.901053,-3.53967 7.901053,-7.901054 0,-4.171755 -3.247333,-7.553405 -7.340077,-7.845744 z M 33.072509,42.705745 H 12.529765 c -3.4922651,0 -6.3208419,-2.828576 -6.3208419,-6.320843 0,-3.492264 2.8285768,-6.320841 6.3208419,-6.320841 h 1.121954 c 1.035039,-3.642387 4.377185,-6.320843 8.359317,-6.320843 4.80384,0 8.691158,3.887318 8.691158,8.691158 v 0.790106 h 2.370315 c 2.615249,0 4.740633,2.125382 4.740633,4.74063 0,2.61525 -2.125384,4.740633 -4.740633,4.740633 z"/>
</svg>
