<svg xmlns="http://www.w3.org/2000/svg" width="48" height="48" viewBox="0 0 48 48">
  <path d="m 26.419101,40.119045 h -3.335305 v -8.680168 h -9.419795 v 8.680168 H 10.34265 V 20.107212 h 3.321351 v 8.415018 h 9.419795 v -8.415018 h 3.335305 z" />
  <path fill="none" d="M0 0h48v48H0V0z" />
  <path d="m 30.000989,17.394915 h 6.294184 v 2.712297 h -9.876072 v -1.118046 q 0,-1.138751 0.383035,-2.039399 0.383033,-0.911001 0.962762,-1.625308 0.579727,-0.724659 1.262976,-1.27333 0.693603,-0.559022 1.31474,-1.00417 0.652194,-0.465853 1.138751,-0.890295 0.496909,-0.424444 0.828181,-0.838536 0.341626,-0.424444 0.507262,-0.848886 0.165637,-0.434796 0.165637,-0.9213525 0,-0.9524099 -0.538318,-1.4389671 -0.53832,-0.4865573 -1.646013,-0.4865573 -1.915171,0 -3.664705,1.5217854 V 6.2662174 q 1.935876,-1.2526264 4.368659,-1.2526264 1.128399,0 2.018695,0.3002164 0.900649,0.2898635 1.521785,0.8385344 0.621136,0.5486708 0.942057,1.3354445 0.331274,0.7764207 0.331274,1.7391823 0,1.0248754 -0.320921,1.8220004 -0.310568,0.797125 -0.838536,1.449319 -0.517613,0.652193 -1.200863,1.200864 -0.683251,0.538318 -1.418263,1.04558 -0.496908,0.351978 -0.96276,0.703955 -0.455501,0.341625 -0.807478,0.68325 -0.351978,0.331273 -0.559024,0.652194 -0.207045,0.320921 -0.207045,0.610784 z" />
</svg>
