<svg xmlns="http://www.w3.org/2000/svg" xmlns:xlink="http://www.w3.org/1999/xlink" width="48" height="48" viewBox="0 0 48 48">
  <path d="m 24,44 c 2.099143,0.137012 4.258555,-2.076528 3.899104,-4 -2.633035,0 -5.266069,0 -7.899104,0 -0.04641,2.150781 1.848746,4.046339 4,4 z M 36,32 c -0.03155,-3.806799 0.06802,-7.617289 -0.05949,-11.421418 C 35.652702,16.028695 32.949239,11.459378 28.546032,9.8396384 27.390898,9.668578 26.710232,9.2588055 27,8.0483521 27.154411,5.7176785 24.190093,4.1153974 22.321289,5.5115234 20.970043,6.3241927 20.942472,7.9686983 21,9.36 16.626426,10.285087 13.278945,14.094247 12.39797,18.401646 11.74548,21.441175 12.085192,24.566514 12,27.650175 12,29.100117 12,30.550058 12,32 c -1.333333,1.333333 -2.6666667,2.666667 -4,4 0,0.666667 0,1.333333 0,2 10.666667,0 21.333333,0 32,0 -0.04791,-0.680454 0.09566,-1.440219 -0.07134,-2.071344 C 38.619104,34.619104 37.309552,33.309552 36,32 Z" />
</svg>
